<?xml version="1.0" encoding="utf-8"?>
<!-- Generator: Adobe Illustrator 23.0.2, SVG Export Plug-In . SVG Version: 6.00 Build 0)  -->
<svg version="1.1" xmlns="http://www.w3.org/2000/svg" xmlns:xlink="http://www.w3.org/1999/xlink" x="0px" y="0px"
	 viewBox="0 0 794 200" style="enable-background:new 0 0 794 200;" xml:space="preserve">
<style type="text/css">
	.st0{display:none;}
	.st1{display:inline;fill:#1F1F1F;}
	.st2{fill:#E6E6E6;}
	.st3{fill:#FFFFFF;}
	.st4{fill:#6D6E70;}
	.st5{fill:#D0D2D3;}
	.st6{fill:#B0B2B3;}
	.st7{fill:#E0E0E0;}
</style>
<g id="Layer_2" class="st0">
	<rect x="-271" y="-263" class="st1" width="1366" height="768"/>
</g>
<g id="Layer_1">
	<g>
		<g>
			<path class="st2" d="M69.4,142.8c0,0-78.6,9.3-59.9-55.9c0,0,8.3-26.2,32.9-20c0,0-18.3-55.8,44.1-61c49.9-4.2,47,42.5,47,42.5
				S158.9,5,199.2,31.9c42.6,28.5-30.6,75.6-37.3,78.9c0,0-14.1-3.6-37.3,8.9C77.7,145.1,69.4,142.8,69.4,142.8z"/>
			<path class="st3" d="M69.4,142.8c-6,0.7-12.1,0.8-18.1,0.5c-6-0.4-12.1-1.3-17.9-3c-5.8-1.7-11.5-4.4-16.3-8.3
				c-2.4-2-4.5-4.3-6.2-6.9c-1.7-2.6-3-5.5-4-8.5c-1.8-6-1.9-12.3-1.2-18.5C6.1,95,6.7,92,7.4,89L8,86.8c0.2-0.8,0.5-1.5,0.8-2.3
				c0.6-1.5,1.3-2.9,2-4.2c1.5-2.7,3.3-5.3,5.5-7.7c2.2-2.3,4.8-4.3,7.7-5.8c2.9-1.5,6.1-2.3,9.3-2.6c3.2-0.3,6.5,0.1,9.6,0.9
				l-2.3,2.5c-1.1-3.5-1.7-6.8-2.2-10.3c-0.4-3.5-0.6-7-0.5-10.5c0.3-7,1.9-14.1,5.4-20.4c1.8-3.1,3.9-6,6.5-8.5
				c2.6-2.5,5.5-4.7,8.6-6.4c6.2-3.5,13-5.6,19.9-6.8c6.8-1.2,13.8-1.7,20.9-1c7,0.7,14.1,2.8,20.1,7.1c3,2.1,5.6,4.7,7.8,7.5
				c2.2,2.9,3.9,6.1,5.3,9.4c1.3,3.3,2.3,6.8,2.9,10.3c0.3,1.7,0.5,3.5,0.7,5.3c0.1,1.8,0.2,3.5,0.1,5.4l-4.6-1.4
				c1.1-1.8,2.2-3.4,3.4-4.9c1.2-1.6,2.5-3.1,3.8-4.5c2.7-2.9,5.6-5.6,8.8-7.9c6.3-4.7,14-8.1,22.1-8.9c8.1-0.8,16.2,1.2,23.3,4.7
				c1.8,0.9,3.5,1.8,5.2,2.9c0.8,0.5,1.7,1.1,2.5,1.6c0.8,0.6,1.6,1.1,2.4,1.8c1.6,1.2,3.1,2.6,4.5,4c1.4,1.5,2.7,3.1,3.8,4.9
				c2.2,3.6,3.4,7.7,3.4,11.9c0,4.2-1,8.2-2.5,11.9c-3.1,7.4-8,13.6-13.2,19.3c-5.3,5.7-11.1,10.7-17.1,15.4c-3,2.4-6.1,4.6-9.3,6.8
				c-1.6,1.1-3.2,2.1-4.8,3.1c-1.7,1-3.2,2-5.1,2.9c-0.3,0.2-0.6,0.2-1,0.1l-0.1,0c-0.8-0.2-1.8-0.3-2.8-0.4c-1-0.1-2-0.1-3-0.1
				c-2,0-4,0.2-6,0.5c-4,0.6-7.9,1.6-11.8,2.9c-3.8,1.3-7.6,2.9-11.3,4.7c-3.7,1.8-7.4,3.8-11.1,5.6c-7.4,3.7-14.9,7.3-22.5,10.5
				c-3.8,1.6-7.7,3.1-11.6,4.4c-2,0.7-3.9,1.3-6,1.7c-1,0.3-2,0.5-3,0.6C71.5,142.8,70.5,143,69.4,142.8z M69.4,142.8
				c1,0.1,2.1-0.1,3.1-0.3c1-0.2,2-0.4,3-0.7c2-0.6,3.9-1.2,5.9-2c3.9-1.5,7.6-3.1,11.4-4.8c7.5-3.5,14.8-7.2,22.1-11.1
				c3.6-2,7.2-4,10.9-5.9c3.7-2,7.5-3.7,11.4-5.2c3.9-1.5,8-2.6,12.2-3.3c2.1-0.3,4.2-0.6,6.3-0.6c1.1,0,2.1,0,3.2,0
				c1.1,0.1,2.1,0.2,3.3,0.4l-1,0.1c1.5-0.8,3.2-1.9,4.7-2.9c1.6-1,3.1-2.1,4.7-3.2c3.1-2.2,6.1-4.5,9-6.8
				c5.9-4.7,11.5-9.8,16.5-15.3c5-5.5,9.5-11.6,12.2-18.3c1.3-3.3,2.1-6.8,2.1-10.3c-0.1-3.4-1.1-6.8-2.9-9.7
				c-3.7-5.9-10.1-10-16.6-13.3c-6.5-3.2-13.8-4.8-20.8-4.1c-7.1,0.7-13.8,3.7-19.6,8c-2.9,2.2-5.6,4.6-8.1,7.3
				c-1.2,1.3-2.4,2.8-3.5,4.2c-1.1,1.4-2.2,3-3.1,4.4c-0.7,1.2-2.2,1.5-3.4,0.8c-0.8-0.5-1.2-1.4-1.2-2.2l0,0c0.1-1.4,0-3.1-0.1-4.7
				c-0.1-1.6-0.3-3.2-0.6-4.8c-0.6-3.2-1.4-6.3-2.6-9.3c-2.3-5.9-6.2-11.2-11.3-14.8c-5.1-3.7-11.4-5.6-17.8-6.3
				c-6.4-0.7-13.1-0.2-19.6,0.9c-6.5,1.1-12.8,3-18.4,6.1c-5.6,3.1-10.4,7.6-13.5,13.1c-3.2,5.5-4.7,12-5,18.5
				c-0.2,3.3-0.1,6.5,0.3,9.8c0.4,3.2,1,6.6,1.9,9.6l0,0.1c0.3,1-0.3,2.1-1.3,2.4c-0.3,0.1-0.7,0.1-1,0c-5.5-1.5-11.4-1.3-16.4,1.2
				c-5,2.4-9.1,6.9-12,11.8c-0.7,1.3-1.4,2.6-2,3.9c-0.3,0.7-0.6,1.3-0.7,2l-0.6,2.1c-0.8,2.9-1.4,5.8-1.8,8.7
				c-0.8,5.8-0.8,11.8,0.7,17.4c0.8,2.8,1.9,5.5,3.4,8c1.5,2.5,3.5,4.7,5.6,6.7c4.4,3.9,9.8,6.6,15.5,8.5c5.7,1.9,11.6,3,17.6,3.5
				C57.4,143.2,63.4,143.3,69.4,142.8z"/>
		</g>
		<g>
			<path class="st3" d="M87.9,137.7c0,0-5-13.7-20.7-16.7"/>
			<path class="st4" d="M85.5,138.5c-0.1-0.4-0.3-0.9-0.5-1.4c-0.2-0.5-0.4-1-0.6-1.5c-0.4-1-1-1.9-1.5-2.8
				c-1.1-1.9-2.5-3.6-4.1-5.1c-1.6-1.5-3.3-2.9-5.3-4c-1.9-1.2-4.1-2-6.3-2.7c2.3,0.3,4.6,0.7,6.8,1.5c2.3,0.8,4.4,1.9,6.4,3.2
				c2,1.3,3.9,3,5.5,4.8c0.8,0.9,1.6,1.9,2.3,2.9c0.4,0.5,0.7,1,1,1.6c0.3,0.6,0.6,1.1,1,1.8L85.5,138.5z"/>
		</g>
		<g>
			<path class="st3" d="M154,111.3c-0.2-0.7-1.1-26.5,12.2-37.1"/>
			<path class="st4" d="M151.3,111.9c0-0.2-0.1-0.4-0.1-0.5l0-0.2l0-0.4l0-0.7l0.1-1.3c0.1-0.9,0.1-1.7,0.2-2.6
				c0.2-1.7,0.4-3.5,0.7-5.2c0.6-3.4,1.4-6.8,2.6-10.1c1.1-3.3,2.6-6.4,4.4-9.3c1.8-2.9,4.2-5.5,7-7.4c-2.5,2.3-4.4,5.1-5.7,8.1
				c-1.4,3-2.3,6.2-3,9.4c-0.6,3.2-1,6.5-1.1,9.8c-0.1,1.6-0.1,3.3,0,4.9c0,0.8,0.1,1.6,0.1,2.4l0.1,1.2l0.1,0.6l0,0.3l0,0.1
				c0,0,0-0.1,0-0.2L151.3,111.9z"/>
		</g>
		<g>
			<path class="st3" d="M109.5,129.2c-2-7.9-11.6-33.1-11.6-33.1"/>
			<path class="st4" d="M105.9,130c-0.4-2.6-1-5.6-1.6-8.4c-0.6-2.8-1.3-5.7-2-8.5c-1.4-5.7-2.9-11.4-4.4-17.1
				c2.7,5.2,5.3,10.5,7.9,15.8c1.3,2.7,2.6,5.3,3.8,8c1.2,2.7,2.5,5.4,3.6,8.4L105.9,130z"/>
		</g>
		<g>
			<path class="st5" d="M81.7,138.9c-0.1-0.3-0.3-0.9-0.4-1.4c-0.2-0.5-0.4-1-0.6-1.5c-0.4-1-0.9-1.9-1.5-2.8
				c-1.1-1.9-2.4-3.6-4-5.1c-1.6-1.6-3.3-3-5.3-4.1c-1.9-1.2-4.1-2-6.3-2.7c2.3,0.3,4.6,0.6,6.9,1.5c2.3,0.7,4.4,1.8,6.5,3.2
				c2,1.3,3.9,3,5.6,4.8c0.8,0.9,1.6,1.9,2.4,2.9c0.4,0.5,0.7,1,1.1,1.6c0.3,0.6,0.6,1.1,1,1.8L81.7,138.9z"/>
		</g>
		<g>
			<path class="st3" d="M132.8,116.1c0,0-8.2-12-1.4-26.5"/>
			<path class="st4" d="M130.7,117.6c-0.4-0.7-0.6-1.2-0.9-1.8c-0.3-0.6-0.5-1.2-0.7-1.8c-0.4-1.2-0.7-2.4-1-3.6
				c-0.5-2.4-0.8-4.9-0.7-7.3c0.1-2.4,0.4-4.8,1.1-7.1c0.6-2.3,1.7-4.4,2.8-6.4c-0.7,2.2-1.3,4.4-1.5,6.7c-0.3,2.2-0.2,4.5,0.2,6.7
				c0.3,2.2,0.9,4.3,1.8,6.3c0.4,1,0.9,2,1.4,2.9c0.3,0.5,0.5,0.9,0.8,1.4c0.3,0.4,0.6,0.9,0.9,1.2L130.7,117.6z"/>
		</g>
		<g>
			<path class="st5" d="M132.9,115c-0.4-0.7-0.6-1.2-0.9-1.9c-0.3-0.6-0.5-1.2-0.7-1.8c-0.4-1.2-0.7-2.4-1-3.6
				c-0.5-2.4-0.7-4.9-0.6-7.3c0.1-2.4,0.5-4.8,1.2-7.1c0.6-2.3,1.7-4.4,2.8-6.4c-0.7,2.2-1.3,4.4-1.5,6.7c-0.3,2.2-0.1,4.5,0.2,6.7
				c0.3,2.2,1,4.3,1.8,6.3c0.4,1,0.9,1.9,1.4,2.9c0.3,0.5,0.5,0.9,0.8,1.3c0.3,0.4,0.6,0.9,0.9,1.1L132.9,115z"/>
		</g>
		<g>
			<path class="st5" d="M148,111.3c0-0.2-0.1-0.4-0.1-0.5l0-0.2l0-0.4l0-0.7l0.1-1.3c0.1-0.9,0.1-1.8,0.2-2.6
				c0.2-1.7,0.4-3.5,0.7-5.2c0.6-3.4,1.4-6.8,2.6-10.1c1.1-3.3,2.6-6.4,4.4-9.3c1.8-2.9,4.2-5.5,7-7.4c-2.5,2.3-4.4,5.1-5.7,8.1
				c-1.4,3-2.3,6.2-3,9.4c-0.6,3.2-1,6.5-1.1,9.8c-0.1,1.6-0.1,3.3,0,4.9c0,0.8,0.1,1.6,0.1,2.4l0.1,1.2l0.1,0.6l0,0.3l0,0.1
				c0,0,0-0.2,0-0.2L148,111.3z"/>
		</g>
		<g>
			<path class="st5" d="M103.3,130.2c-0.5-2.7-1.2-5.6-1.9-8.4c-0.7-2.8-1.5-5.7-2.2-8.5c-1.6-5.7-3.2-11.3-4.8-16.9
				c2.5,5.3,5,10.6,7.4,16c1.2,2.7,2.4,5.4,3.6,8.1c1.2,2.7,2.3,5.4,3.3,8.4L103.3,130.2z"/>
		</g>
		<path class="st6" d="M12.7,96.5c-0.5-1.9-18.7,41.7,43.7,43.9c0,0-10.5-10.2-2.9-15.7C53.5,124.7,23.5,134.9,12.7,96.5z"/>
		<path class="st6" d="M97.8,13.3c0,0-63.3-8.9-49.3,51.1c0,0,2.1-2.7,10.3-2.8C58.8,61.5,38.5,15.8,97.8,13.3z"/>
		<path class="st6" d="M194.6,35.9c0,0-30.9-24.3-55.9,15.8c0,0,3.5,5.6,5.6,8.7C144.3,60.4,153.1,18.9,194.6,35.9z"/>
		<g>
			<path class="st2" d="M69.4,142.8l7.4,50.7c0,0,15.9-7.8,43.1-5c24.8,2.6,57.3-20.4,57.3-20.4s-1.4-16.7-6.7-31.2
				c-5.3-14.5-9.5-26.8-9.5-26.8s-21.4,0.1-46.5,14.2C89.6,138.6,77.1,142.1,69.4,142.8z"/>
			<path class="st3" d="M69.4,142.8l4.5,25.6c1.5,8.4,3,16.7,4.3,24.9l-2.1-1.1c2.2-1,4.2-1.8,6.4-2.5c2.2-0.7,4.3-1.3,6.5-1.7
				c4.4-0.9,8.9-1.5,13.3-1.9c4.5-0.3,9-0.3,13.5-0.1c2.2,0.2,4.5,0.3,6.5,0.4c2.1,0,4.2,0,6.3-0.3c8.4-1,16.6-3.9,24.5-7.4
				c3.9-1.8,7.8-3.8,11.6-5.9c3.8-2.1,7.5-4.4,11-6.8l-1,2.2c-0.5-4.8-1.2-9.8-2.2-14.6c-1-4.8-2.2-9.6-3.7-14.3
				c-0.4-1.1-0.8-2.3-1.2-3.5l-1.3-3.6l-2.5-7.1c-1.6-4.8-3.2-9.5-4.8-14.3l2.1,1.5c-1.8,0-3.9,0.2-5.9,0.4c-2,0.2-4,0.5-5.9,0.9
				c-3.9,0.7-7.9,1.6-11.7,2.8c-3.8,1.2-7.7,2.5-11.4,4.1c-1.9,0.7-3.7,1.6-5.5,2.4c-1.8,0.9-3.6,1.8-5.4,2.7
				c-7.2,3.9-14.6,7.6-22.2,10.7c-3.8,1.6-7.7,3-11.6,4.2C77.6,141.8,73.5,142.6,69.4,142.8z M69.4,142.8c4.1-0.5,8-1.7,11.8-3.1
				c3.8-1.4,7.5-3.1,11.2-4.8c7.3-3.5,14.4-7.6,21.5-11.7c7.1-4.2,14.7-7.7,22.6-10.3c3.9-1.3,8-2.4,12.1-3.2c2-0.4,4.1-0.8,6.2-1.1
				c2.1-0.3,4.1-0.5,6.4-0.6c0.9,0,1.8,0.6,2.1,1.4l0,0.1c1.6,4.7,3.3,9.5,5.1,14.2c1.7,4.7,3.5,9.4,5.2,14.2c1.7,4.9,3,9.9,4,14.9
				c1,5,1.8,10,2.3,15.2l0,0c0.1,0.9-0.3,1.8-1,2.2c-3.8,2.6-7.6,4.9-11.5,7.1c-3.9,2.2-7.9,4.2-12,6c-8.2,3.6-16.9,6.5-26,7.5
				c-2.3,0.2-4.6,0.3-6.9,0.2c-2.4-0.2-4.5-0.4-6.6-0.6c-4.3-0.3-8.6-0.5-13-0.3c-4.3,0.2-8.6,0.6-12.9,1.4
				c-2.1,0.4-4.2,0.9-6.3,1.4c-2.1,0.6-4.2,1.2-6,2l-0.1,0c-0.7,0.3-1.6,0-1.9-0.8c-0.1-0.1-0.1-0.3-0.1-0.4
				c-1.1-8.7-2.1-17.3-3.1-25.8L69.4,142.8z"/>
		</g>
		<path class="st6" d="M73.6,144.8l7.7,42.7c0,0,8.5-7.7,41.8-5C95.3,174.1,80.9,179,73.6,144.8z"/>
	</g>
	<g>
		<path class="st7" d="M311.2,138.4c4.9,5.9,12.7,8.9,23.2,8.9c9.9,0,20.1-1.7,30.7-5c3.5-1.1,6.1-1.6,7.7-1.6c3,0,4.5,0.9,4.5,2.6
			c0,2.5-2,5.2-5.9,8c-4,2.8-8.9,5.4-15,7.6c-6,2.2-12.9,4.1-20.5,5.6c-7.6,1.5-14.9,2.2-21.7,2.2c-12.2,0-22.9-1.9-32.1-5.7
			c-9.3-3.8-16.4-9.2-21.5-16.3c-5.1-7-7.6-14.7-7.6-23.1c0-8.3,1.4-16.1,4.2-23.2c2.8-7.1,6.6-13.5,11.4-19.2
			c4.8-5.7,10.4-11,16.8-15.9c6.4-4.9,13.2-9,20.3-12.2c15.2-7,29.8-10.5,43.8-10.5c14,0,24.9,2.9,32.6,8.6
			C390,55,393.9,62,393.9,70.3c0,9-2.7,17-8,23.8c-2.5,3.3-5.9,6-10.2,8c-4.2,2-9,3-14.3,3c-3.5,0-6.6-0.5-9-1.5
			c-4.7-1.9-7.1-4.5-7.1-8c0-1.2,1.4-4.6,4.1-10.1c2.7-5.6,5.5-11.3,8.2-17.2c2.8-5.9,4.1-10,4.1-12.2c0-2.2-0.9-3.7-2.8-4.6
			c-1.9-0.8-4.5-1.2-8-1.2c-3.5,0-7.4,1.3-11.7,3.9c-4.4,2.6-8.6,6.2-12.6,10.8c-4.1,4.6-7.8,9.6-11.2,15.2
			c-3.4,5.6-6.1,11.6-8.1,18.1c-2,6.5-3,12.3-3,17.4c0,5.1,0.6,9.5,1.8,13.2C307.1,132.4,308.9,135.6,311.2,138.4z"/>
		<path class="st7" d="M401.6,158.3c-9.8-5.9-14.7-14.8-14.7-26.8c0-6.2,1.3-12.1,3.9-17.6c2.6-5.5,6.1-10.2,10.6-14.2
			c4.5-4,9.7-7.4,15.7-10.3c12-5.8,25.7-8.7,41.1-8.7c30.4,0,46.8,9.6,49.2,28.9c3.6,1.2,7.4,1.8,11.3,1.8s7.1-0.3,9.7-0.9
			c2.6-0.6,5.1-1.4,7.4-2.6c2.3-1.1,4-1.7,5-1.7c2,0,3,1,3,2.9c0,1.9-1.5,3.9-4.6,6c-5.8,4-13.4,5.9-22.9,5.9
			c-3.6,0-6.5-0.2-8.7-0.5c-1.7,13.1-8.4,24-20.3,32.7c-5.7,4.2-12.6,7.4-20.9,9.8c-8.2,2.4-16.8,3.6-25.6,3.6
			c-8.8,0-16.4-0.7-22.7-2.1C411.8,163.2,406.3,161.1,401.6,158.3z M430,138.4c0,9.6,3.5,14.4,10.5,14.4c4.5,0,8.6-2.4,12.5-7.3
			c3.9-4.9,6.9-10.9,9-18.2c2.2-7.2,3.2-14.6,3.2-22.1c0-7.5-2.6-11.3-7.9-11.3c-4.6,0-9,2.2-13.3,6.5c-4.3,4.3-7.7,9.9-10.3,16.8
			C431.2,124.1,430,131.2,430,138.4z"/>
		<path class="st7" d="M531.2,158.3c-9.8-5.9-14.7-14.8-14.7-26.8c0-6.2,1.3-12.1,3.9-17.6c2.6-5.5,6.1-10.2,10.6-14.2
			c4.5-4,9.7-7.4,15.7-10.3c12-5.8,25.7-8.7,41.1-8.7c30.4,0,46.8,9.6,49.2,28.9c3.6,1.2,7.4,1.8,11.3,1.8s7.1-0.3,9.7-0.9
			c2.6-0.6,5.1-1.4,7.4-2.6c2.3-1.1,4-1.7,5-1.7c2,0,3,1,3,2.9c0,1.9-1.5,3.9-4.6,6c-5.8,4-13.4,5.9-22.9,5.9
			c-3.6,0-6.5-0.2-8.7-0.5c-1.7,13.1-8.4,24-20.3,32.7c-5.7,4.2-12.6,7.4-20.9,9.8s-16.8,3.6-25.6,3.6c-8.8,0-16.4-0.7-22.7-2.1
			C541.4,163.2,535.9,161.1,531.2,158.3z M559.5,138.4c0,9.6,3.5,14.4,10.5,14.4c4.5,0,8.6-2.4,12.5-7.3c3.9-4.9,6.9-10.9,9-18.2
			c2.2-7.2,3.2-14.6,3.2-22.1c0-7.5-2.6-11.3-7.9-11.3c-4.6,0-9,2.2-13.3,6.5c-4.3,4.3-7.7,9.9-10.3,16.8
			C560.8,124.1,559.5,131.2,559.5,138.4z"/>
		<path class="st7" d="M738.6,83l30.5-0.9c1.4,0,2.4,0.4,3,1.2c0.7,0.8,1,1.7,1,2.7c0,3.7-1.2,7.4-3.7,10.9
			c-2.5,3.5-5.6,6.6-9.5,9.2c-3.8,2.7-8.3,5.1-13.5,7.4c-9.3,4.1-19.3,7.3-30.1,9.5c7.4-1.1,13.8-1.6,19.3-1.6
			c13.2,0,19.8,4.1,19.8,12.4c0,1.3-0.3,3.2-1,5.8c-0.7,2.6-1,4.6-1,6.2c0,3.3,1.7,5,5,5c2.4,0,6-0.9,10.6-2.7
			c4.6-1.8,8.2-3.4,10.6-4.8c2.5-1.4,4.2-2.1,5-2.1c0.9,0,1.6,0.3,2.3,0.8c0.7,0.5,1,1.5,1,2.9c0,1.4-1.1,2.9-3.4,4.5
			c-7.6,5.4-16.7,9.6-27.3,12.6c-10.6,3-20.1,4.6-28.5,4.6c-8.4,0-14.1-0.8-17-2.5c-3-1.7-4.4-4.5-4.4-8.4c0-2,0.5-5,1.6-9.1
			c1.1-4.1,1.6-7.3,1.6-9.7c0-6.9-4.1-10.7-12.4-11.5c-6.2,17.1-9.6,29-10,35.9c-0.1,1.9-1.5,2.9-4.1,2.9l-40.2,0.9
			c-0.6,0-1.2-0.4-1.9-1.1c-0.7-0.7-1.1-1.6-1.1-2.6c0-1,1.7-6.3,5-15.7c3.4-9.4,7-19.6,11.1-30.7c4-11,7.7-22.5,11.1-34.4
			c3.4-11.9,5-20.8,5-26.6l-0.1-2.2c0-2.6,2.5-3.9,7.6-3.9l35.7-0.2c1.2,0,2.2,0.4,2.9,1.1c0.8,0.8,1.1,1.6,1.1,2.5
			c0,4.5-2.2,14-6.7,28.5c-4.5,14.5-8.7,27.2-12.8,38.2c9.4-2.4,16.7-6.3,22.1-11.5c5.4-5.3,8-10.8,8-16.6l-0.1-3
			C731,84.3,733.5,83,738.6,83z"/>
	</g>
</g>
</svg>
