<svg id="Logo" xmlns="http://www.w3.org/2000/svg" viewBox="0 0 344.61 79.78"><title>si-digitization-logo-pos</title><path d="M110.09,53.3c5.49,0,9,2.27,9,7.71a10,10,0,0,1-4.7,8.62c-2.42,1.57-5.15,2.13-8.7,2.13H99.56l.2-.76c2.19-.23,2.39-.43,2.82-2.65l2.22-11.61c.42-2.25.31-2.39-2-2.7l.17-.74ZM105,68.09c-.26,1.43-.2,2,.31,2.25a4.21,4.21,0,0,0,2.08.4c5.77,0,9.07-4.55,9.07-9.87,0-4.36-2.53-6.64-6.65-6.64a4.34,4.34,0,0,0-1.88.29c-.29.17-.46.48-.63,1.42Z"/><path d="M126.28,69.26c-.94,1.17-3.16,2.85-4.15,2.85-.57,0-.94-.46-.37-2.79L123.52,62c.17-.62.17-.91,0-.91a5.6,5.6,0,0,0-1.93,1.22l-.35-.65c1.57-1.54,3.56-2.7,4.33-2.7s.6.91.28,2.25l-2,7.85c-.17.68-.11.91.06.91a5.77,5.77,0,0,0,2-1.34ZM127,54.8a1.58,1.58,0,0,1-1.51,1.65,1.19,1.19,0,0,1-1.19-1.25,1.67,1.67,0,0,1,1.56-1.68A1.18,1.18,0,0,1,127,54.8Z"/><path d="M140.59,59.64a3.93,3.93,0,0,1-2,1.34,2.61,2.61,0,0,1-.74.08,4.26,4.26,0,0,1,.23,1.6A5.57,5.57,0,0,1,135.9,67a8.43,8.43,0,0,1-3.67,1.65,1.27,1.27,0,0,0-.57.91c0,.43.68.94,2.05,1.65,2.73,1.45,3.84,2.57,3.84,3.79,0,2.36-4,4.07-6.72,4.07s-5.15-1.42-5.09-3.19c0-1.22,1.65-2.5,4.78-4.1-.71-.45-1.08-1-1.05-1.39s.4-1,1.73-1.77c-1.62-.37-2.47-1.53-2.47-3.47a6.14,6.14,0,0,1,2.39-4.75A6.28,6.28,0,0,1,134.76,59a3.71,3.71,0,0,1,2.42.79,6.36,6.36,0,0,0,3.21-.68Zm-5.12,16.14c0-.77-.77-1.48-2.08-2.25-.94-.57-1.73-1-2.13-1.22-1.91.91-3.16,2-3.16,3.1,0,1.45,1.88,2.47,3.87,2.47C134.11,77.88,135.47,76.89,135.47,75.78Zm.49-13c0-1.62-.66-2.76-1.91-2.76A2.59,2.59,0,0,0,132,61.26a6.57,6.57,0,0,0-1.08,3.7c0,1.68.83,2.56,1.85,2.56C134.25,67.52,136,65.79,136,62.74Z"/><path d="M145.89,69.26c-.94,1.17-3.16,2.85-4.16,2.85-.57,0-.94-.46-.37-2.79L143.13,62c.17-.62.17-.91,0-.91a5.69,5.69,0,0,0-1.94,1.22l-.34-.65c1.57-1.54,3.56-2.7,4.33-2.7.62,0,.59.91.28,2.25l-2,7.85c-.17.68-.12.91.05.91a5.79,5.79,0,0,0,2-1.34Zm.74-14.46a1.59,1.59,0,0,1-1.51,1.65,1.2,1.2,0,0,1-1.2-1.25,1.67,1.67,0,0,1,1.57-1.68A1.18,1.18,0,0,1,146.63,54.8Z"/><path d="M155.42,60.41l-2.82.14-1.68,7.86c-.28,1.39-.14,1.7.17,1.7a6.33,6.33,0,0,0,2.57-1.65l.39.6c-.94,1.14-3.07,3-4.58,3-.65,0-1.22-.83-.6-3.76l1.68-7.8h-2.1l-.09-.25.71-.86h1.71l.66-2.7L153.6,55l.25.18-1,4.29h3.3Z"/><path d="M161.74,69.26c-.94,1.17-3.16,2.85-4.16,2.85-.57,0-.94-.46-.37-2.79L159,62c.17-.62.17-.91,0-.91A5.69,5.69,0,0,0,157,62.34l-.34-.65c1.57-1.54,3.56-2.7,4.33-2.7.62,0,.59.91.28,2.25l-2,7.85c-.17.68-.12.91.05.91a5.79,5.79,0,0,0,2-1.34Zm.74-14.46A1.59,1.59,0,0,1,161,56.45a1.2,1.2,0,0,1-1.2-1.25,1.67,1.67,0,0,1,1.57-1.68A1.18,1.18,0,0,1,162.48,54.8Z"/><path d="M175.34,59.19c-.34.45-.88,1.05-1.65,1.9-1.82,2.08-5.55,5.84-7.68,8.06a4.9,4.9,0,0,1,2.16.45,9.11,9.11,0,0,0,2.56.69c.77,0,1.62-.49,2.9-2.42l.63.51c-1.54,3.07-2.68,4-3.9,4A11.83,11.83,0,0,1,166.55,71c-.91-.46-1.4-.43-1.77-.17a3.64,3.64,0,0,0-.91,1c-.11.18-.2.29-.34.26-.48-.23-.71-1,1-2.85,2-2.1,5.27-5.32,7.91-8.13a7,7,0,0,1-1.76.08c-.74-.08-2-.17-2.7-.17-1.31,0-2,1-2.82,2.42l-.71-.34a17.15,17.15,0,0,1,1.17-2.31c.68-1.08,1.36-1.68,2.07-1.68a18.55,18.55,0,0,1,3,.35,11,11,0,0,0,2.3.28,2.65,2.65,0,0,0,1.74-1.08Z"/><path d="M188,69.15c-1.53,1.9-3.44,3-4.15,3-.54,0-.91-.43-.52-2.51l.57-2.7h-.05a20.88,20.88,0,0,1-3.67,3.93,4.78,4.78,0,0,1-2.65,1.28c-.74,0-1.65-.94-1.65-3.22a10.5,10.5,0,0,1,3.41-7.71,9,9,0,0,1,5.3-2.19,8.88,8.88,0,0,1,1.76.2,6.11,6.11,0,0,0,1.08.17l.09.11c-.46,1.77-1.31,5.64-2,9.25-.19,1-.11,1.22.06,1.22a6.14,6.14,0,0,0,2-1.48Zm-3.7-4.44c.32-1.14.74-3.19.94-4.1a4.77,4.77,0,0,0-1.91-.4,3.55,3.55,0,0,0-2,.6c-1.93,1.42-3.07,4.78-3.07,7.6,0,1.28.37,1.88.77,1.88C180.12,70.29,183.33,66.67,184.3,64.71Z"/><path d="M197,60.41l-2.82.14-1.68,7.86c-.28,1.39-.14,1.7.17,1.7a6.31,6.31,0,0,0,2.56-1.65l.4.6c-.94,1.14-3.07,3-4.58,3-.66,0-1.23-.83-.6-3.76l1.68-7.8H190l-.08-.25.71-.86h1.71l.65-2.7L195.14,55l.26.18-1,4.29h3.31Z"/><path d="M203.28,69.26c-.94,1.17-3.16,2.85-4.15,2.85-.57,0-.94-.46-.37-2.79L200.52,62c.17-.62.17-.91,0-.91a5.69,5.69,0,0,0-1.93,1.22l-.34-.65c1.56-1.54,3.55-2.7,4.32-2.7s.6.91.29,2.25l-2,7.85c-.17.68-.11.91.06.91a5.77,5.77,0,0,0,2-1.34ZM204,54.8a1.58,1.58,0,0,1-1.51,1.65,1.2,1.2,0,0,1-1.19-1.25,1.67,1.67,0,0,1,1.56-1.68A1.18,1.18,0,0,1,204,54.8Z"/><path d="M205.53,67.67a8.65,8.65,0,0,1,4.33-7.77,7.21,7.21,0,0,1,3.07-.91c2.36,0,3.78,1.62,3.78,4.44a9.22,9.22,0,0,1-3,6.88,7,7,0,0,1-4.38,1.8C206.58,72.11,205.53,70,205.53,67.67Zm5.69,3.13c1.54-.66,3.1-3.67,3.1-7.32,0-2.3-1-3.41-2.3-3.41a2.53,2.53,0,0,0-1.08.25c-1.11.49-3,2.82-3,7.2,0,2.11.88,3.45,2.39,3.45A2.42,2.42,0,0,0,211.22,70.8Z"/><path d="M231.4,69.35c-1.68,1.82-3.27,2.76-4,2.76s-1-.77-.46-3,1-4.22,1.54-6.32c.4-1.62.23-2-.23-2-1.25,0-4.55,3.53-6,6-.34,1.39-.77,3.1-1.11,4.81a13.86,13.86,0,0,0-2.05.57l-.17-.23c.77-3.08,1.63-6.49,2.31-9.65.23-.91.14-1.14,0-1.14a5.27,5.27,0,0,0-1.85,1.28l-.37-.68c1.54-1.68,3.22-2.7,4-2.7s.77,1,.23,3.16l-.6,2.47h.06a19.12,19.12,0,0,1,5.24-5,3.86,3.86,0,0,1,1.9-.62c.69,0,1.48.42.63,4.07C230,65,229.55,67,229.06,69c-.17.76-.14,1,.06,1A4.88,4.88,0,0,0,231,68.66Z"/><path d="M117.94,16.24c-.87-3.12-2.14-6.48-6.38-6.48a5.12,5.12,0,0,0-5.41,5.36c0,3.55,2.34,5.21,6.19,7.21s8.43,4.24,8.43,9.7c0,5.11-4.34,9.21-10.82,9.21a16.91,16.91,0,0,1-4.77-.73,16,16,0,0,1-2.39-1,59.21,59.21,0,0,1-1.32-7.55l1.41-.34c.78,3,3,7.89,8,7.89,3.65,0,5.84-2.29,5.84-5.84s-2.68-5.32-6.33-7.27c-3.12-1.65-8-4.09-8-9.6,0-4.67,3.75-8.67,10-8.67a20.37,20.37,0,0,1,6.14,1.12c.19,1.75.44,3.66.83,6.73Z"/><path d="M150.64,40.51V39.24c2.88-.29,3.41-.49,3.41-4V27.15c0-3.46-1.21-5.65-4.28-5.65-1.76,0-3.61,1-5.46,2.54a11.18,11.18,0,0,1,.14,2v9.5c0,3.08.44,3.37,3.12,3.66v1.27H137.14V39.24c3-.29,3.46-.54,3.46-3.75V27.11c0-3.61-1.26-5.61-4.24-5.61-1.94,0-3.85,1.32-5.31,2.54V35.49c0,3.17.39,3.46,2.78,3.75v1.27H123.55V39.24c3.21-.29,3.65-.58,3.65-3.75V25.4c0-3.12-.14-3.36-3-3.8V20.48a30,30,0,0,0,6.77-2v3.95c1-.69,2.1-1.56,3.56-2.49a7.26,7.26,0,0,1,4-1.31,5.82,5.82,0,0,1,5.41,4,45.1,45.1,0,0,1,4-2.73,6.74,6.74,0,0,1,3.66-1.26c3.8,0,6.19,2.68,6.19,7.45v9.41c0,3.26.39,3.46,3.16,3.75v1.27Z"/><path d="M163.7,40.51V39.24c3.07-.29,3.41-.58,3.41-3.9v-10c0-3-.14-3.21-3.07-3.7V20.43a30.46,30.46,0,0,0,6.92-1.9V35.34c0,3.32.34,3.61,3.46,3.9v1.27Zm2.59-28.61a2.5,2.5,0,0,1,2.48-2.53,2.43,2.43,0,0,1,2.44,2.53,2.5,2.5,0,0,1-2.49,2.49A2.55,2.55,0,0,1,166.29,11.9Z"/><path d="M185.83,40.46a4.92,4.92,0,0,1-2.05.63c-3.07,0-4.78-2-4.78-5.8V21.11h-3.36l-.19-.49,1.31-1.41H179V15.65l3.17-3.21.68.09v6.68h5.51a1.39,1.39,0,0,1-.29,1.9h-5.22V33.64c0,3.94,1.61,4.67,2.83,4.67a7,7,0,0,0,3-.82l.44,1.26Z"/><path d="M204.49,40.51V39.24c2.83-.29,3.22-.58,3.22-3.75V27.4c0-4-1.51-6-4.78-6a6.89,6.89,0,0,0-5.07,2.49v11.6c0,3.12.25,3.46,3.12,3.75v1.27H190.65V39.24c2.92-.24,3.36-.54,3.36-3.75V12.24c0-3.07-.09-3.31-3.31-3.6V7.52a55.4,55.4,0,0,0,7.16-1.71V22.18c1.71-1.75,4.34-3.55,7-3.55,3.95,0,6.73,2.48,6.73,8.33v8.53c0,3.21.34,3.51,3.21,3.75v1.27Z"/><path d="M229.73,25c-.92-2.87-2.63-4.82-5-4.82a3.17,3.17,0,0,0-3.16,3.36c0,2.19,1.95,3.31,4.14,4.24,3.65,1.51,6.14,3.26,6.14,6.63,0,4.43-4.14,6.72-8,6.72a9.73,9.73,0,0,1-5.61-1.66,23,23,0,0,1-.78-5.75l1.27-.24c.88,3.22,3.07,6,6,6a3.4,3.4,0,0,0,3.46-3.41c0-2.14-1.42-3.31-3.85-4.43-2.93-1.37-6.1-3-6.1-6.73,0-3.41,2.93-6.28,7.41-6.28a11.4,11.4,0,0,1,4.34.82A37.43,37.43,0,0,1,231,24.67Z"/><path d="M256.73,29.49c0,7.85-5.75,11.6-10.57,11.6a10.56,10.56,0,0,1-10.68-10.77c0-8,6.24-11.69,10.68-11.69A10.56,10.56,0,0,1,256.73,29.49ZM240,28.76c0,6.14,2.68,10.72,6.67,10.72,3,0,5.51-2.24,5.51-8.91,0-5.71-2.29-10.34-6.53-10.34C242.65,20.23,240,23.26,240,28.76Z"/><path d="M273.3,40.51V39.24c2.88-.29,3.22-.68,3.22-4V27.06c0-3.37-1.17-5.56-4.44-5.56-1.95,0-3.85,1.22-5.31,2.49V35.44c0,3.31.29,3.51,3.17,3.8v1.27H259.36V39.24c3.32-.34,3.56-.58,3.56-3.8V25.35c0-3.12-.29-3.26-2.92-3.75V20.48a29.51,29.51,0,0,0,6.77-2v3.9c1-.73,2.05-1.46,3.27-2.29a7.43,7.43,0,0,1,4-1.46c3.85,0,6.29,2.68,6.29,7.4v9.41c0,3.31.24,3.51,3.07,3.8v1.27Z"/><path d="M286.17,40.51V39.24c3.06-.29,3.41-.58,3.41-3.9v-10c0-3-.15-3.21-3.07-3.7V20.43a30.75,30.75,0,0,0,6.92-1.9V35.34c0,3.32.34,3.61,3.46,3.9v1.27Zm2.58-28.61a2.5,2.5,0,0,1,2.48-2.53,2.43,2.43,0,0,1,2.44,2.53,2.5,2.5,0,0,1-2.49,2.49A2.55,2.55,0,0,1,288.75,11.9Z"/><path d="M314.77,41.09a4,4,0,0,1-2.29-.92,5.12,5.12,0,0,1-1.17-2.2c-1.95,1.32-4.29,3.12-5.75,3.12a5.88,5.88,0,0,1-5.85-5.94c0-2.39,1.27-3.9,4-4.83,2.92-1,6.48-2.29,7.55-3.17v-.87c0-3.51-1.65-5.51-4.09-5.51a2.74,2.74,0,0,0-2.19,1A7.06,7.06,0,0,0,303.46,25a1.35,1.35,0,0,1-1.41,1.12A2.37,2.37,0,0,1,299.91,24c0-.73.63-1.27,1.56-1.95a21.48,21.48,0,0,1,7.31-3.41,6.32,6.32,0,0,1,4,1.31c1.71,1.41,2.19,3.41,2.19,5.95V35c0,2.19.88,2.93,1.71,2.93a3.67,3.67,0,0,0,1.75-.54l.49,1.27Zm-3.56-12.28c-1,.54-3.36,1.56-4.38,2.05-1.9.88-3,1.8-3,3.56a3.57,3.57,0,0,0,3.46,3.75,7,7,0,0,0,3.9-1.76Z"/><path d="M334.12,40.51V39.24c2.87-.29,3.21-.68,3.21-4V27.06c0-3.37-1.17-5.56-4.43-5.56-1.95,0-3.85,1.22-5.31,2.49V35.44c0,3.31.29,3.51,3.16,3.8v1.27H320.18V39.24c3.31-.34,3.56-.58,3.56-3.8V25.35c0-3.12-.3-3.26-2.93-3.75V20.48a29.74,29.74,0,0,0,6.78-2v3.9c1-.73,2-1.46,3.26-2.29a7.46,7.46,0,0,1,4-1.46c3.85,0,6.28,2.68,6.28,7.4v9.41c0,3.31.25,3.51,3.07,3.8v1.27Z"/><circle cx="39.94" cy="39.89" r="39.59" style="fill:#139ad6"/><path d="M63.82,47.91a8.3,8.3,0,0,0-7.11-4.45h0l17.08-3.56L56.71,36.33h0a13.86,13.86,0,0,1,8.48-3.17c3.76,0,7-4.65,4.94-8.19,0,0-.62,5.56-7.63,3.7a8.3,8.3,0,0,0-8.18,1.89h0L63.88,16l-14.6,9.56h0A13.83,13.83,0,0,1,53,17.28C55.65,14.58,54.7,9,50.73,8c0,0,3.49,4.36-2.77,8a8.32,8.32,0,0,0-4.45,7.12h0L39.94,6,36.39,23.12h0a13.9,13.9,0,0,1-3.17-8.49c-.06-3.75-4.66-7-8.19-4.93,0,0,5.55.62,3.7,7.63a8.35,8.35,0,0,0,1.89,8.18h0L16,16h0l7.79,11.9,1.77,2.7h0a13.83,13.83,0,0,1-8.24-3.76c-2.7-2.62-8.25-1.67-9.28,2.3,0,0,4.36-3.49,8,2.78a8.29,8.29,0,0,0,7.12,4.44h0L6.09,39.89l17.09,3.56h0a13.72,13.72,0,0,1-8.49,3.17c-3.75.06-7,4.66-4.93,8.19,0,0,.61-5.55,7.63-3.7a8.31,8.31,0,0,0,8.18-1.89h0L16,63.83l14.6-9.57a13.88,13.88,0,0,1-3.76,8.24c-2.62,2.7-1.67,8.25,2.3,9.29,0,0-3.49-4.37,2.78-8a8.31,8.31,0,0,0,4.44-7.12h0l3.55,17.08L43.5,56.66h0a13.84,13.84,0,0,1,3.16,8.48c.06,3.76,4.66,7,8.19,4.93,0,0-5.55-.61-3.7-7.62a8.3,8.3,0,0,0-1.89-8.18h0l14.6,9.57-5.05-7.71-4.51-6.89h0A13.78,13.78,0,0,1,62.55,53c2.7,2.61,8.26,1.66,9.29-2.3C71.84,50.69,67.47,54.18,63.82,47.91Z" style="fill:#ffcd03"/></svg>